<svg width="140" height="48" viewBox="0 0 140 48" fill="none" xmlns="http://www.w3.org/2000/svg">
<g clip-path="url(#clip0_707_21498)">
<g clip-path="url(#clip1_707_21498)">
<g filter="url(#filter0_d_707_21498)">
<path d="M129.902 2H10.0978C6.73008 2 4 4.73008 4 8.09781V35.9022C4 39.2699 6.73008 42 10.0978 42H129.902C133.27 42 136 39.2699 136 35.9022V8.09781C136 4.73008 133.27 2 129.902 2Z" fill="black"/>
<path d="M12.4806 9.40194C12.1779 9.71354 12 10.1961 12 10.8224V33.1786C12 33.8048 12.1779 34.2874 12.4806 34.599L12.5576 34.6719L25.4351 22.1482V21.8528L12.5576 9.3291L12.4806 9.40194Z" fill="#00D7FE"/>
<mask id="mask0_707_21498" style="mask-type:alpha" maskUnits="userSpaceOnUse" x="25" y="17" width="12" height="10">
<path d="M29.7266 26.3236L25.4355 22.1474V21.852L29.7287 17.6768L34.9113 20.5398C36.3636 21.3431 36.3636 22.6563 34.9113 23.4585L29.8255 26.269L29.7266 26.3236Z" fill="white"/>
</mask>
<g mask="url(#mask0_707_21498)">
<path d="M29.7266 26.3236L25.4355 22.1474V21.852L29.7287 17.6768L34.9113 20.5398C36.3636 21.3431 36.3636 22.6563 34.9113 23.4585L29.8255 26.269L29.7266 26.3236Z" fill="url(#paint0_linear_707_21498)"/>
</g>
<mask id="mask1_707_21498" style="mask-type:alpha" maskUnits="userSpaceOnUse" x="12" y="22" width="18" height="13">
<path d="M29.8248 26.2693L25.4349 22L12.4805 34.5985C12.96 35.0912 13.7506 35.1519 14.6411 34.6602L29.8248 26.2693Z" fill="white"/>
</mask>
<g mask="url(#mask1_707_21498)">
<path d="M29.8239 26.2693L25.4339 22L12.4795 34.5985C12.9591 35.0912 13.7497 35.1519 14.6401 34.6602L29.8239 26.2693Z" fill="url(#paint1_linear_707_21498)"/>
</g>
<mask id="mask2_707_21498" style="mask-type:alpha" maskUnits="userSpaceOnUse" x="12" y="9" width="18" height="13">
<path d="M29.8239 17.7306L14.6401 9.33971C13.7497 8.84803 12.9591 8.90873 12.4795 9.40142L25.4339 22L29.8239 17.7306Z" fill="white"/>
</mask>
<g mask="url(#mask2_707_21498)">
<path d="M29.8229 17.7306L14.6392 9.33971C13.7487 8.84803 12.9581 8.90873 12.4785 9.40142L25.433 22L29.8229 17.7306Z" fill="url(#paint2_linear_707_21498)"/>
</g>
<path d="M44.9517 14H43.8887L43.8955 13.3198H44.9517C45.2593 13.3198 45.5168 13.2526 45.7241 13.1182C45.9338 12.9837 46.091 12.7912 46.1958 12.5405C46.3029 12.2899 46.3564 11.9914 46.3564 11.645V11.375C46.3564 11.1061 46.3257 10.868 46.2642 10.6606C46.2049 10.4533 46.116 10.279 45.9976 10.1377C45.8813 9.99642 45.7378 9.88932 45.5669 9.81641C45.3983 9.74349 45.2035 9.70703 44.9824 9.70703H43.8682V9.02344H44.9824C45.3128 9.02344 45.6147 9.07926 45.8882 9.19092C46.1616 9.30029 46.3975 9.45866 46.5957 9.66602C46.7962 9.87337 46.95 10.1217 47.0571 10.4111C47.1642 10.7005 47.2178 11.0241 47.2178 11.3818V11.645C47.2178 12.0028 47.1642 12.3263 47.0571 12.6157C46.95 12.9051 46.7962 13.1535 46.5957 13.3608C46.3952 13.5659 46.1559 13.7243 45.8779 13.8359C45.6022 13.9453 45.2935 14 44.9517 14ZM44.3638 9.02344V14H43.5059V9.02344H44.3638ZM51.9774 11.375V11.6484C51.9774 12.0244 51.9284 12.3617 51.8304 12.6602C51.7324 12.9587 51.5923 13.2127 51.41 13.4224C51.23 13.632 51.0135 13.7926 50.7606 13.9043C50.5076 14.0137 50.2274 14.0684 49.9197 14.0684C49.6144 14.0684 49.3353 14.0137 49.0823 13.9043C48.8317 13.7926 48.6141 13.632 48.4295 13.4224C48.2449 13.2127 48.1014 12.9587 47.9988 12.6602C47.8986 12.3617 47.8485 12.0244 47.8485 11.6484V11.375C47.8485 10.999 47.8986 10.6629 47.9988 10.3667C48.0991 10.0682 48.2404 9.81413 48.4227 9.60449C48.6072 9.39258 48.8249 9.23193 49.0755 9.12256C49.3284 9.0109 49.6076 8.95508 49.9129 8.95508C50.2205 8.95508 50.5008 9.0109 50.7537 9.12256C51.0067 9.23193 51.2243 9.39258 51.4066 9.60449C51.5889 9.81413 51.729 10.0682 51.827 10.3667C51.9272 10.6629 51.9774 10.999 51.9774 11.375ZM51.1195 11.6484V11.3682C51.1195 11.0902 51.0921 10.8452 51.0374 10.6333C50.985 10.4191 50.9064 10.2402 50.8016 10.0967C50.699 9.95085 50.5726 9.84147 50.4222 9.76855C50.2718 9.69336 50.102 9.65576 49.9129 9.65576C49.7238 9.65576 49.5552 9.69336 49.4071 9.76855C49.2589 9.84147 49.1325 9.95085 49.0277 10.0967C48.9251 10.2402 48.8465 10.4191 48.7918 10.6333C48.7371 10.8452 48.7098 11.0902 48.7098 11.3682V11.6484C48.7098 11.9264 48.7371 12.1725 48.7918 12.3867C48.8465 12.6009 48.9263 12.7821 49.0311 12.9302C49.1382 13.076 49.2658 13.1865 49.4139 13.2617C49.562 13.3346 49.7306 13.3711 49.9197 13.3711C50.1112 13.3711 50.2809 13.3346 50.429 13.2617C50.5771 13.1865 50.7025 13.076 50.805 12.9302C50.9075 12.7821 50.985 12.6009 51.0374 12.3867C51.0921 12.1725 51.1195 11.9264 51.1195 11.6484ZM54.0128 12.8823L55.004 9.02344H55.5236L55.4655 10.0181L54.4059 14H53.8659L54.0128 12.8823ZM53.2711 9.02344L54.0744 12.8516L54.1461 14H53.5719L52.4201 9.02344H53.2711ZM56.6481 12.8413L57.4411 9.02344H58.2955L57.1437 14H56.5695L56.6481 12.8413ZM55.7252 9.02344L56.7062 12.8926L56.8497 14H56.3097L55.2672 10.0181L55.2125 9.02344H55.7252ZM62.809 9.02344V14H61.9511L59.7192 10.4351V14H58.8613V9.02344H59.7192L61.958 12.5952V9.02344H62.809ZM66.8782 13.3198V14H64.3797V13.3198H66.8782ZM64.6189 9.02344V14H63.761V9.02344H64.6189ZM71.214 11.375V11.6484C71.214 12.0244 71.165 12.3617 71.067 12.6602C70.969 12.9587 70.8289 13.2127 70.6466 13.4224C70.4666 13.632 70.2501 13.7926 69.9972 13.9043C69.7442 14.0137 69.464 14.0684 69.1563 14.0684C68.851 14.0684 68.5719 14.0137 68.3189 13.9043C68.0683 13.7926 67.8507 13.632 67.6661 13.4224C67.4815 13.2127 67.338 12.9587 67.2354 12.6602C67.1352 12.3617 67.0851 12.0244 67.0851 11.6484V11.375C67.0851 10.999 67.1352 10.6629 67.2354 10.3667C67.3357 10.0682 67.477 9.81413 67.6593 9.60449C67.8438 9.39258 68.0615 9.23193 68.3121 9.12256C68.565 9.0109 68.8442 8.95508 69.1495 8.95508C69.4571 8.95508 69.7374 9.0109 69.9903 9.12256C70.2433 9.23193 70.4609 9.39258 70.6432 9.60449C70.8255 9.81413 70.9656 10.0682 71.0636 10.3667C71.1638 10.6629 71.214 10.999 71.214 11.375ZM70.3561 11.6484V11.3682C70.3561 11.0902 70.3287 10.8452 70.274 10.6333C70.2216 10.4191 70.143 10.2402 70.0382 10.0967C69.9356 9.95085 69.8092 9.84147 69.6588 9.76855C69.5084 9.69336 69.3386 9.65576 69.1495 9.65576C68.9604 9.65576 68.7918 9.69336 68.6437 9.76855C68.4955 9.84147 68.3691 9.95085 68.2643 10.0967C68.1617 10.2402 68.0831 10.4191 68.0284 10.6333C67.9737 10.8452 67.9464 11.0902 67.9464 11.3682V11.6484C67.9464 11.9264 67.9737 12.1725 68.0284 12.3867C68.0831 12.6009 68.1629 12.7821 68.2677 12.9302C68.3748 13.076 68.5024 13.1865 68.6505 13.2617C68.7986 13.3346 68.9672 13.3711 69.1563 13.3711C69.3478 13.3711 69.5175 13.3346 69.6656 13.2617C69.8137 13.1865 69.9391 13.076 70.0416 12.9302C70.1441 12.7821 70.2216 12.6009 70.274 12.3867C70.3287 12.1725 70.3561 11.9264 70.3561 11.6484ZM73.8647 9.68652L72.3779 14H71.4789L73.352 9.02344H73.9262L73.8647 9.68652ZM75.1088 14L73.6186 9.68652L73.5536 9.02344H74.1313L76.0112 14H75.1088ZM75.037 12.1543V12.8345H72.33V12.1543H75.037ZM77.9441 14H76.8811L76.8879 13.3198H77.9441C78.2517 13.3198 78.5092 13.2526 78.7165 13.1182C78.9262 12.9837 79.0834 12.7912 79.1882 12.5405C79.2953 12.2899 79.3489 11.9914 79.3489 11.645V11.375C79.3489 11.1061 79.3181 10.868 79.2566 10.6606C79.1973 10.4533 79.1085 10.279 78.99 10.1377C78.8738 9.99642 78.7302 9.88932 78.5593 9.81641C78.3907 9.74349 78.1959 9.70703 77.9748 9.70703H76.8606V9.02344H77.9748C78.3052 9.02344 78.6072 9.07926 78.8806 9.19092C79.154 9.30029 79.3899 9.45866 79.5881 9.66602C79.7886 9.87337 79.9425 10.1217 80.0495 10.4111C80.1566 10.7005 80.2102 11.0241 80.2102 11.3818V11.645C80.2102 12.0028 80.1566 12.3263 80.0495 12.6157C79.9425 12.9051 79.7886 13.1535 79.5881 13.3608C79.3876 13.5659 79.1483 13.7243 78.8703 13.8359C78.5946 13.9453 78.2859 14 77.9441 14ZM77.3562 9.02344V14H76.4983V9.02344H77.3562ZM86.6429 11.375V11.6484C86.6429 12.0244 86.594 12.3617 86.496 12.6602C86.398 12.9587 86.2579 13.2127 86.0756 13.4224C85.8956 13.632 85.6791 13.7926 85.4262 13.9043C85.1732 14.0137 84.8929 14.0684 84.5853 14.0684C84.28 14.0684 84.0009 14.0137 83.7479 13.9043C83.4973 13.7926 83.2797 13.632 83.0951 13.4224C82.9105 13.2127 82.767 12.9587 82.6644 12.6602C82.5642 12.3617 82.514 12.0244 82.514 11.6484V11.375C82.514 10.999 82.5642 10.6629 82.6644 10.3667C82.7647 10.0682 82.906 9.81413 83.0883 9.60449C83.2728 9.39258 83.4904 9.23193 83.7411 9.12256C83.994 9.0109 84.2732 8.95508 84.5785 8.95508C84.8861 8.95508 85.1664 9.0109 85.4193 9.12256C85.6722 9.23193 85.8899 9.39258 86.0721 9.60449C86.2544 9.81413 86.3946 10.0682 86.4926 10.3667C86.5928 10.6629 86.6429 10.999 86.6429 11.375ZM85.785 11.6484V11.3682C85.785 11.0902 85.7577 10.8452 85.703 10.6333C85.6506 10.4191 85.572 10.2402 85.4672 10.0967C85.3646 9.95085 85.2382 9.84147 85.0878 9.76855C84.9374 9.69336 84.7676 9.65576 84.5785 9.65576C84.3894 9.65576 84.2207 9.69336 84.0726 9.76855C83.9245 9.84147 83.7981 9.95085 83.6932 10.0967C83.5907 10.2402 83.5121 10.4191 83.4574 10.6333C83.4027 10.8452 83.3754 11.0902 83.3754 11.3682V11.6484C83.3754 11.9264 83.4027 12.1725 83.4574 12.3867C83.5121 12.6009 83.5918 12.7821 83.6967 12.9302C83.8038 13.076 83.9314 13.1865 84.0795 13.2617C84.2276 13.3346 84.3962 13.3711 84.5853 13.3711C84.7767 13.3711 84.9465 13.3346 85.0946 13.2617C85.2427 13.1865 85.368 13.076 85.4706 12.9302C85.5731 12.7821 85.6506 12.6009 85.703 12.3867C85.7577 12.1725 85.785 11.9264 85.785 11.6484ZM91.3786 9.02344V14H90.5207L88.2888 10.4351V14H87.4309V9.02344H88.2888L90.5275 12.5952V9.02344H91.3786Z" fill="#FBFBFB"/>
<path d="M109.845 31.9309H111.738V19.4512H109.845V31.9309ZM126.895 23.9466L124.725 29.3573H124.66L122.408 23.9466H120.369L123.746 31.5087L121.821 35.7155H123.796L129 23.9466H126.895ZM116.16 30.5134C115.539 30.5134 114.675 30.2089 114.675 29.4542C114.675 28.4908 115.752 28.1214 116.682 28.1214C117.515 28.1214 117.905 28.2981 118.411 28.5387C118.264 29.6948 117.253 30.5134 116.16 30.5134ZM116.389 23.674C115.018 23.674 113.599 24.268 113.011 25.5848L114.691 26.2746C115.05 25.5848 115.719 25.3592 116.421 25.3592C117.4 25.3592 118.395 25.9372 118.411 26.9654V27.0932C118.068 26.9005 117.335 26.612 116.437 26.612C114.626 26.612 112.782 27.5913 112.782 29.4212C112.782 31.0914 114.267 32.1675 115.931 32.1675C117.204 32.1675 117.905 31.6055 118.346 30.9466H118.411V31.91H120.238V27.1261C120.238 24.9099 118.558 23.674 116.389 23.674ZM104.69 25.466H101.998V21.1883H104.69C106.105 21.1883 106.909 22.3413 106.909 23.3266C106.909 24.294 106.105 25.466 104.69 25.466ZM104.641 19.4512H100.106V31.9309H101.998V27.203H104.641C106.739 27.203 108.802 25.7076 108.802 23.3266C108.802 20.9457 106.739 19.4512 104.641 19.4512ZM79.9083 30.5154C78.6007 30.5154 77.5061 29.4382 77.5061 27.9587C77.5061 26.4633 78.6007 25.3691 79.9083 25.3691C81.1997 25.3691 82.2121 26.4633 82.2121 27.9587C82.2121 29.4382 81.1997 30.5154 79.9083 30.5154ZM82.0812 24.6454H82.0163C81.5913 24.1472 80.7746 23.697 79.745 23.697C77.5873 23.697 75.6101 25.5618 75.6101 27.9587C75.6101 30.3387 77.5873 32.1885 79.745 32.1885C80.7746 32.1885 81.5913 31.7383 82.0163 31.2231H82.0812V31.8341C82.0812 33.4593 81.1997 34.3279 79.7774 34.3279C78.6169 34.3279 77.8977 33.5073 77.6035 32.8154L75.953 33.4913C76.4268 34.6174 77.6857 36 79.7774 36C82.0001 36 83.8798 34.7132 83.8798 31.5775V23.9535H82.0812V24.6454ZM85.1874 31.9309H87.0834V19.4502H85.1874V31.9309ZM89.8772 27.814C89.8285 26.1738 91.1686 25.3372 92.1323 25.3372C92.885 25.3372 93.5221 25.7066 93.7341 26.2377L89.8772 27.814ZM95.7609 26.3984C95.4018 25.45 94.3062 23.697 92.0674 23.697C89.8447 23.697 87.9984 25.4171 87.9984 27.9427C87.9984 30.3227 89.8285 32.1885 92.2794 32.1885C94.2575 32.1885 95.4018 30.9985 95.8756 30.3067L94.4046 29.3414C93.9146 30.0492 93.2441 30.5154 92.2794 30.5154C91.3157 30.5154 90.6289 30.0811 90.1876 29.2295L95.9567 26.8816L95.7609 26.3984ZM49.7988 24.9998V26.8007H54.1781C54.0472 27.814 53.7043 28.5537 53.1819 29.0688C52.5438 29.6958 51.5466 30.3866 49.7988 30.3866C47.1024 30.3866 44.9934 28.2482 44.9934 25.5948C44.9934 22.9403 47.1024 20.8019 49.7988 20.8019C51.2535 20.8019 52.3156 21.365 53.0997 22.0887L54.3911 20.8179C53.2955 19.7887 51.8418 19 49.7988 19C46.1052 19 43 21.96 43 25.5948C43 29.2296 46.1052 32.1885 49.7988 32.1885C51.7921 32.1885 53.2955 31.5456 54.4723 30.3387C55.6815 29.1487 56.0578 27.4765 56.0578 26.1248C56.0578 25.7066 56.0254 25.3212 55.9594 24.9998H49.7988ZM61.0377 30.5154C59.7301 30.5154 58.6021 29.4542 58.6021 27.9427C58.6021 26.4144 59.7301 25.3691 61.0377 25.3691C62.3443 25.3691 63.4724 26.4144 63.4724 27.9427C63.4724 29.4542 62.3443 30.5154 61.0377 30.5154ZM61.0377 23.697C58.6508 23.697 56.7061 25.4819 56.7061 27.9427C56.7061 30.3866 58.6508 32.1885 61.0377 32.1885C63.4237 32.1885 65.3684 30.3866 65.3684 27.9427C65.3684 25.4819 63.4237 23.697 61.0377 23.697ZM70.4852 30.5154C69.1776 30.5154 68.0495 29.4542 68.0495 27.9427C68.0495 26.4144 69.1776 25.3691 70.4852 25.3691C71.7928 25.3691 72.9198 26.4144 72.9198 27.9427C72.9198 29.4542 71.7928 30.5154 70.4852 30.5154ZM70.4852 23.697C68.0992 23.697 66.1545 25.4819 66.1545 27.9427C66.1545 30.3866 68.0992 32.1885 70.4852 32.1885C72.8711 32.1885 74.8158 30.3866 74.8158 27.9427C74.8158 25.4819 72.8711 23.697 70.4852 23.697Z" fill="#FBFBFB"/>
<path d="M129.902 2.2H10.098C6.84073 2.2 4.2002 4.84054 4.2002 8.09781V35.9022C4.2002 39.1595 6.84073 41.8 10.098 41.8H129.902C133.16 41.8 135.8 39.1595 135.8 35.9022V8.09781C135.8 4.84054 133.16 2.2 129.902 2.2Z" stroke="#DEE0E3"/>
</g>
</g>
</g>
<defs>
<filter id="filter0_d_707_21498" x="-0.299805" y="-0.300003" width="140.6" height="48.6" filterUnits="userSpaceOnUse" color-interpolation-filters="sRGB">
<feFlood flood-opacity="0" result="BackgroundImageFix"/>
<feColorMatrix in="SourceAlpha" type="matrix" values="0 0 0 0 0 0 0 0 0 0 0 0 0 0 0 0 0 0 127 0" result="hardAlpha"/>
<feOffset dy="2"/>
<feGaussianBlur stdDeviation="2"/>
<feColorMatrix type="matrix" values="0 0 0 0 0 0 0 0 0 0 0 0 0 0 0 0 0 0 0.08 0"/>
<feBlend mode="normal" in2="BackgroundImageFix" result="effect1_dropShadow_707_21498"/>
<feBlend mode="normal" in="SourceGraphic" in2="effect1_dropShadow_707_21498" result="shape"/>
</filter>
<linearGradient id="paint0_linear_707_21498" x1="33.9666" y1="22" x2="25.4355" y2="22" gradientUnits="userSpaceOnUse">
<stop stop-color="#FFBC00"/>
<stop offset="1" stop-color="#FFDA03"/>
</linearGradient>
<linearGradient id="paint1_linear_707_21498" x1="27.4381" y1="26.0172" x2="16.5559" y2="35.2405" gradientUnits="userSpaceOnUse">
<stop stop-color="#E22652"/>
<stop offset="1" stop-color="#FF3A44"/>
</linearGradient>
<linearGradient id="paint2_linear_707_21498" x1="14.4401" y1="10.9181" x2="21.6827" y2="17.4665" gradientUnits="userSpaceOnUse">
<stop stop-color="#0ED574"/>
<stop offset="1" stop-color="#07F076"/>
</linearGradient>
<clipPath id="clip0_707_21498">
<rect width="140" height="48" fill="white"/>
</clipPath>
<clipPath id="clip1_707_21498">
<rect width="140" height="48" fill="white"/>
</clipPath>
</defs>
</svg>
