<svg width="220" height="41" viewBox="0 0 220 41" fill="none" xmlns="http://www.w3.org/2000/svg">
<path d="M31.402 19.0234L31.6656 10.1172C31.6656 7.61719 31.4117 5.83984 30.9039 4.78516C30.3961 3.73047 29.3316 3.17383 27.7105 3.11523C26.3824 3.05664 25.7184 2.74414 25.7184 2.17773C25.7184 1.57227 26.109 1.26953 26.8902 1.26953C27.7887 1.26953 29.1559 1.31836 30.9918 1.41602C33.3551 1.5332 34.6734 1.5918 34.9469 1.5918C38.2672 1.5918 41.1773 1.51367 43.6773 1.35742C44.1461 1.31836 44.4781 1.29883 44.6734 1.29883C45.4156 1.29883 45.7867 1.57227 45.7867 2.11914C45.7867 2.72461 45.3668 3.03711 44.527 3.05664C43.1598 3.07617 42.1832 3.26172 41.5973 3.61328C41.0309 3.96484 40.6305 4.51172 40.3961 5.25391C40.1813 5.97656 40.0055 8.55469 39.8688 12.9883C39.732 17.4023 39.6637 20.4395 39.6637 22.0996C39.6637 28.9746 39.7027 33.1836 39.7809 34.7266C39.8785 36.2695 40.2301 37.3438 40.8355 37.9492C41.4605 38.5547 42.5152 38.8574 43.9996 38.8574C44.9176 38.8574 45.3766 39.1504 45.3766 39.7363C45.3766 40.2441 45.025 40.498 44.3219 40.498C44.0875 40.498 43.5797 40.4688 42.7984 40.4102L34.6832 40.1465C34.1949 40.1465 33.2574 40.1855 31.8707 40.2637C29.2145 40.4395 27.4957 40.5273 26.7145 40.5273C26.0113 40.5273 25.6598 40.2441 25.6598 39.6777C25.6598 39.1699 25.9527 38.916 26.5387 38.916C27.9449 38.916 28.9703 38.6719 29.6148 38.1836C30.2594 37.6953 30.7281 36.5723 31.0211 34.8145C31.3141 33.0566 31.4605 29.5508 31.4605 24.2969C31.4605 23.75 31.441 22.9297 31.402 21.8359C27.984 21.7383 24.9566 21.6895 22.3199 21.6895C19.2926 21.6895 16.9 21.7871 15.1422 21.9824C14.9078 25.9082 14.7906 29.4629 14.7906 32.6465C14.7906 34.9121 15.0348 36.4844 15.523 37.3633C16.0309 38.2422 17.0758 38.7207 18.6578 38.7988C19.4195 38.8379 19.8004 39.1211 19.8004 39.6484C19.8004 40.1953 19.4 40.4688 18.5992 40.4688C18.3063 40.4688 17.8766 40.4395 17.3102 40.3809C14.9859 40.166 12.5543 40.0586 10.0152 40.0586C8.82383 40.0586 7.23203 40.1172 5.23985 40.2344C3.8336 40.332 2.92539 40.3809 2.51524 40.3809C1.49961 40.3809 0.991798 40.0879 0.991798 39.502C0.991798 39.0332 1.39219 38.75 2.19297 38.6523C3.69688 38.4961 4.7125 38.1738 5.23985 37.6855C5.78672 37.1973 6.18711 36.2793 6.44102 34.9316C6.71445 33.5645 6.8707 29.6875 6.90977 23.3008C6.96836 16.9141 6.99766 13.4277 6.99766 12.8418C6.99766 9.95117 6.89024 7.86133 6.67539 6.57227C6.48008 5.26367 6.13828 4.38477 5.65 3.93555C5.16172 3.48633 4.40977 3.20312 3.39414 3.08594C2.61289 2.96875 2.12461 2.86133 1.9293 2.76367C1.73399 2.64648 1.63633 2.41211 1.63633 2.06055C1.63633 1.47461 1.96836 1.18164 2.63242 1.18164C3.47227 1.18164 4.88828 1.25977 6.88047 1.41602C7.99375 1.49414 9.25352 1.5332 10.6598 1.5332L18.9215 1.26953C19.8785 1.26953 20.357 1.57227 20.357 2.17773C20.357 2.76367 19.9664 3.05664 19.1852 3.05664C17.8961 3.05664 17.0074 3.21289 16.5191 3.52539C16.0309 3.83789 15.6695 4.45313 15.4352 5.37109C15.2008 6.28906 15.0836 8.06641 15.0836 10.7031L15.1422 19.0234C17.6227 19.2773 20.2984 19.4043 23.1695 19.4043C26.0211 19.4043 28.7652 19.2773 31.402 19.0234ZM63.7738 37.1875C62.5629 38.3398 61.3422 39.209 60.1117 39.7949C58.8813 40.3613 57.641 40.6445 56.391 40.6445C54.3988 40.6445 52.8559 40.0488 51.7621 38.8574C50.6879 37.6465 50.1508 36.1816 50.1508 34.4629C50.1508 33.1348 50.473 31.9531 51.1176 30.918C51.7816 29.8633 52.5922 29.0527 53.5492 28.4863C54.5258 27.9004 56.1273 27.207 58.3539 26.4062C60.2289 25.7422 61.4789 25.2246 62.1039 24.8535C62.7484 24.4629 63.2855 23.9062 63.7152 23.1836C64.1449 22.4414 64.3598 21.4844 64.3598 20.3125C64.3598 19.0234 64.0375 17.998 63.393 17.2363C62.7484 16.4551 61.8598 16.0645 60.727 16.0645C59.7504 16.0645 59.057 16.3086 58.6469 16.7969C58.2367 17.3047 57.9242 18.1152 57.7094 19.2285C57.2602 21.4551 56.059 22.5684 54.1059 22.5684C53.3051 22.5684 52.6215 22.334 52.0551 21.8652C51.4887 21.3965 51.2055 20.7227 51.2055 19.8438C51.2055 17.9688 52.2211 16.5723 54.2523 15.6543C56.3031 14.7168 58.7445 14.248 61.5766 14.248C64.018 14.248 66.0004 14.6191 67.5238 15.3613C69.0668 16.1035 70.0531 16.9629 70.4828 17.9395C70.9125 18.916 71.1273 20.4395 71.1273 22.5098L71.0688 29.4531C71.0688 33.1055 71.1859 35.4492 71.4203 36.4844C71.6742 37.5195 72.2016 38.0371 73.0023 38.0371C73.1195 38.0371 73.2758 38.0273 73.4711 38.0078C73.8617 37.9688 74.1254 37.9492 74.2621 37.9492C75.0629 37.9492 75.4633 38.1738 75.4633 38.623C75.4633 38.916 75.2973 39.1699 74.9652 39.3848C74.6332 39.5801 73.6273 39.834 71.9477 40.1465C70.2875 40.459 68.7836 40.6152 67.4359 40.6152C66.0883 40.6152 65.1605 40.3613 64.6527 39.8535C64.1645 39.3262 63.8715 38.4375 63.7738 37.1875ZM64.1547 25.4688C63.6859 26.0352 62.5629 26.7871 60.7855 27.7246C59.1645 28.584 58.0805 29.3457 57.5336 30.0098C56.9867 30.6934 56.7133 31.6797 56.7133 32.9688C56.7133 34.3359 56.9965 35.3809 57.5629 36.1035C58.1488 36.8066 58.8617 37.1582 59.7016 37.1582C60.8344 37.1582 61.8891 36.6406 62.8656 35.6055C63.8422 34.5508 64.3305 32.7051 64.3305 30.0684C64.3305 29.248 64.2719 27.7148 64.1547 25.4688ZM89.173 20.166C90.1496 18.1934 91.2727 16.7188 92.5422 15.7422C93.8117 14.7656 95.2277 14.2773 96.7902 14.2773C98.2746 14.2773 99.4563 14.707 100.335 15.5664C101.234 16.4258 101.683 17.5 101.683 18.7891C101.683 19.8047 101.361 20.6738 100.716 21.3965C100.091 22.0996 99.3195 22.4512 98.4016 22.4512C97.718 22.4512 97.1516 22.2754 96.7023 21.9238C96.2531 21.5723 95.7746 20.9473 95.2668 20.0488C94.5637 18.7598 93.9484 18.1152 93.4211 18.1152C92.6984 18.1152 91.8781 18.8477 90.9602 20.3125C90.0422 21.7773 89.5832 24.6191 89.5832 28.8379C89.5832 34.1699 89.759 37.1387 90.1105 37.7441C90.4816 38.3301 91.2824 38.623 92.5129 38.623C93.5871 38.623 94.1242 38.916 94.1242 39.502C94.1242 40.0488 93.5969 40.3223 92.5422 40.3223C91.9563 40.3223 91.1066 40.2637 89.9934 40.1465C88.9777 40.0488 88.0207 40 87.1223 40C85.1887 40 83.2746 40.0684 81.3801 40.2051C80.5793 40.2637 80.1105 40.293 79.9738 40.293C79.1535 40.293 78.7434 39.9902 78.7434 39.3848C78.7434 38.8574 79.2219 38.5742 80.1789 38.5352C81.1164 38.4961 81.7707 38.2812 82.1418 37.8906C82.5129 37.4805 82.6984 36.6016 82.6984 35.2539L82.8156 27.9297C82.8156 26.4453 82.757 24.5996 82.6398 22.3926C82.5227 20.1855 82.4152 18.877 82.3176 18.4668C82.2199 18.0371 81.966 17.6562 81.5559 17.3242C81.1652 16.9922 80.6281 16.7969 79.9445 16.7383C79.2414 16.6602 78.7922 16.5723 78.5969 16.4746C78.4211 16.3574 78.3332 16.1328 78.3332 15.8008C78.3332 15.2734 78.8215 15 79.798 14.9805C81.5949 14.9609 84.6516 14.7266 88.968 14.2773L89.173 20.166ZM121.516 32.207C122.785 29.4922 123.967 26.6406 125.061 23.6523C126.154 20.6445 126.701 18.7793 126.701 18.0566C126.701 17.2754 126.252 16.7676 125.354 16.5332C124.494 16.2988 124.064 15.9766 124.064 15.5664C124.064 15.0781 124.416 14.834 125.119 14.834C125.471 14.834 126.193 14.8828 127.287 14.9805C128.283 15.0586 128.977 15.0977 129.367 15.0977C130.227 15.0977 131.027 15.0391 131.77 14.9219C132.18 14.8633 132.502 14.834 132.736 14.834C133.342 14.834 133.645 15.1074 133.645 15.6543C133.645 16.0645 133.234 16.3379 132.414 16.4746C130.559 16.7676 129.016 18.4863 127.785 21.6309C126.379 25.2051 125.031 28.5156 123.742 31.5625C122.473 34.6094 121.496 36.8164 120.812 38.1836C120.129 39.5312 119.709 40.2539 119.553 40.3516C119.416 40.4688 119.24 40.5273 119.025 40.5273C118.771 40.5273 118.527 40.3418 118.293 39.9707C118.059 39.5996 117.053 37.6367 115.275 34.082L108.508 20.6055C107.531 18.6719 106.789 17.5195 106.281 17.1484C105.773 16.7578 105.334 16.5137 104.963 16.416C104.201 16.2402 103.82 15.9668 103.82 15.5957C103.82 15.0488 104.191 14.7754 104.934 14.7754C105.246 14.7754 105.734 14.8047 106.398 14.8633C107.98 15.0195 109.523 15.0977 111.027 15.0977C111.633 15.0977 112.316 15.0684 113.078 15.0098C114.465 14.873 115.295 14.8047 115.568 14.8047C116.857 14.8047 117.502 15.0293 117.502 15.4785C117.502 16.0254 117.141 16.3379 116.418 16.416C115.402 16.5137 114.895 16.9922 114.895 17.8516C114.895 18.3594 115.715 20.3711 117.355 23.8867C118.996 27.4023 120.383 30.1758 121.516 32.207ZM148.878 37.1875C147.667 38.3398 146.446 39.209 145.216 39.7949C143.985 40.3613 142.745 40.6445 141.495 40.6445C139.503 40.6445 137.96 40.0488 136.866 38.8574C135.792 37.6465 135.255 36.1816 135.255 34.4629C135.255 33.1348 135.577 31.9531 136.221 30.918C136.886 29.8633 137.696 29.0527 138.653 28.4863C139.63 27.9004 141.231 27.207 143.458 26.4062C145.333 25.7422 146.583 25.2246 147.208 24.8535C147.852 24.4629 148.389 23.9062 148.819 23.1836C149.249 22.4414 149.464 21.4844 149.464 20.3125C149.464 19.0234 149.141 17.998 148.497 17.2363C147.852 16.4551 146.964 16.0645 145.831 16.0645C144.854 16.0645 144.161 16.3086 143.751 16.7969C143.341 17.3047 143.028 18.1152 142.813 19.2285C142.364 21.4551 141.163 22.5684 139.21 22.5684C138.409 22.5684 137.725 22.334 137.159 21.8652C136.593 21.3965 136.309 20.7227 136.309 19.8438C136.309 17.9688 137.325 16.5723 139.356 15.6543C141.407 14.7168 143.848 14.248 146.68 14.248C149.122 14.248 151.104 14.6191 152.628 15.3613C154.171 16.1035 155.157 16.9629 155.587 17.9395C156.016 18.916 156.231 20.4395 156.231 22.5098L156.173 29.4531C156.173 33.1055 156.29 35.4492 156.524 36.4844C156.778 37.5195 157.305 38.0371 158.106 38.0371C158.223 38.0371 158.38 38.0273 158.575 38.0078C158.966 37.9688 159.229 37.9492 159.366 37.9492C160.167 37.9492 160.567 38.1738 160.567 38.623C160.567 38.916 160.401 39.1699 160.069 39.3848C159.737 39.5801 158.731 39.834 157.052 40.1465C155.391 40.459 153.888 40.6152 152.54 40.6152C151.192 40.6152 150.264 40.3613 149.757 39.8535C149.268 39.3262 148.975 38.4375 148.878 37.1875ZM149.259 25.4688C148.79 26.0352 147.667 26.7871 145.889 27.7246C144.268 28.584 143.184 29.3457 142.638 30.0098C142.091 30.6934 141.817 31.6797 141.817 32.9688C141.817 34.3359 142.1 35.3809 142.667 36.1035C143.253 36.8066 143.966 37.1582 144.805 37.1582C145.938 37.1582 146.993 36.6406 147.97 35.6055C148.946 34.5508 149.434 32.7051 149.434 30.0684C149.434 29.248 149.376 27.7148 149.259 25.4688ZM174.277 20.166C175.254 18.1934 176.377 16.7188 177.646 15.7422C178.916 14.7656 180.332 14.2773 181.894 14.2773C183.379 14.2773 184.56 14.707 185.439 15.5664C186.337 16.4258 186.787 17.5 186.787 18.7891C186.787 19.8047 186.464 20.6738 185.82 21.3965C185.195 22.0996 184.423 22.4512 183.505 22.4512C182.822 22.4512 182.255 22.2754 181.806 21.9238C181.357 21.5723 180.879 20.9473 180.371 20.0488C179.668 18.7598 179.052 18.1152 178.525 18.1152C177.802 18.1152 176.982 18.8477 176.064 20.3125C175.146 21.7773 174.687 24.6191 174.687 28.8379C174.687 34.1699 174.863 37.1387 175.214 37.7441C175.586 38.3301 176.386 38.623 177.617 38.623C178.691 38.623 179.228 38.916 179.228 39.502C179.228 40.0488 178.701 40.3223 177.646 40.3223C177.06 40.3223 176.211 40.2637 175.097 40.1465C174.082 40.0488 173.125 40 172.226 40C170.293 40 168.379 40.0684 166.484 40.2051C165.683 40.2637 165.214 40.293 165.078 40.293C164.257 40.293 163.847 39.9902 163.847 39.3848C163.847 38.8574 164.326 38.5742 165.283 38.5352C166.22 38.4961 166.875 38.2812 167.246 37.8906C167.617 37.4805 167.802 36.6016 167.802 35.2539L167.92 27.9297C167.92 26.4453 167.861 24.5996 167.744 22.3926C167.627 20.1855 167.519 18.877 167.421 18.4668C167.324 18.0371 167.07 17.6562 166.66 17.3242C166.269 16.9922 165.732 16.7969 165.048 16.7383C164.345 16.6602 163.896 16.5723 163.701 16.4746C163.525 16.3574 163.437 16.1328 163.437 15.8008C163.437 15.2734 163.925 15 164.902 14.9805C166.699 14.9609 169.755 14.7266 174.072 14.2773L174.277 20.166ZM208.641 17.0605C208.641 11.416 208.612 7.65625 208.553 5.78125C208.495 3.88672 208.338 2.7832 208.084 2.4707C207.83 2.13867 207.137 1.875 206.004 1.67969C205.243 1.5625 204.862 1.28906 204.862 0.859375C204.862 0.527344 204.989 0.322266 205.243 0.244141C205.516 0.146484 206.366 0.0976562 207.791 0.0976562H215.526L215.467 20.8984L215.321 33.8184C215.321 35.8105 215.487 37.0703 215.819 37.5977C216.17 38.125 216.961 38.4668 218.192 38.623C218.914 38.7012 219.276 38.9746 219.276 39.4434C219.276 39.9512 218.895 40.2051 218.133 40.2051H208.641V36.1914C207.801 37.6953 206.776 38.8281 205.565 39.5898C204.354 40.332 202.948 40.7031 201.346 40.7031C198.358 40.7031 195.731 39.541 193.465 37.2168C191.219 34.8926 190.096 31.8945 190.096 28.2227C190.096 24.1992 191.385 20.8984 193.963 18.3203C196.541 15.7227 199.413 14.4238 202.577 14.4238C203.768 14.4238 204.862 14.6484 205.858 15.0977C206.873 15.5273 207.801 16.1816 208.641 17.0605ZM198.006 27.373C198.006 31.1035 198.495 33.8379 199.471 35.5762C200.467 37.2949 201.727 38.1543 203.25 38.1543C204.715 38.1543 205.965 37.334 207 35.6934C208.055 34.0332 208.582 31.0449 208.582 26.7285C208.582 23.2129 208.143 20.5762 207.264 18.8184C206.385 17.0605 205.057 16.1816 203.28 16.1816C201.522 16.1816 200.204 17.1191 199.325 18.9941C198.446 20.8496 198.006 23.6426 198.006 27.373Z" fill="#737373"/>
</svg>
