<svg width="198" height="36" viewBox="0 0 198 36" fill="none" xmlns="http://www.w3.org/2000/svg">
<path d="M47.9438 7.15677H52.6286V24.5431H61.3114V28.4673H47.9438V7.15677Z" fill="#737373" fill-opacity="0.7"/>
<path d="M63.4205 24.8476C62.7033 23.5603 62.3422 22.1134 62.3726 20.649C62.3422 19.1846 62.7033 17.7377 63.4205 16.4504C64.1026 15.2475 65.1353 14.2685 66.3882 13.637C67.7767 12.985 69.2983 12.6463 70.8397 12.6463C72.3811 12.6463 73.9027 12.985 75.2912 13.637C76.5423 14.271 77.5743 15.2494 78.2588 16.4504C78.9726 17.7388 79.3321 19.1852 79.3024 20.649C79.3358 22.1186 78.9762 23.5715 78.2588 24.8648C77.5697 26.058 76.5384 27.0297 75.2912 27.661C73.9027 28.313 72.3811 28.6516 70.8397 28.6516C69.2983 28.6516 67.7767 28.313 66.3882 27.661C65.1353 27.0295 64.1026 26.0505 63.4205 24.8476ZM74.8377 20.649C74.8872 19.4707 74.4978 18.3146 73.7413 17.3939C73.3852 16.9878 72.9388 16.666 72.4361 16.4527C71.9334 16.2395 71.3875 16.1404 70.8397 16.163C70.2922 16.1416 69.7471 16.243 69.2462 16.4593C68.7454 16.6757 68.3024 17.0013 67.9513 17.411C67.1993 18.3332 66.816 19.4897 66.8725 20.6661C66.816 21.8426 67.1993 22.9991 67.9513 23.9213C68.3024 24.3309 68.7454 24.6565 69.2462 24.8729C69.7471 25.0893 70.2922 25.1907 70.8397 25.1693C71.3903 25.1877 71.938 25.0833 72.4409 24.8641C72.9438 24.6448 73.3886 24.3164 73.7413 23.9041C74.4978 22.9834 74.8872 21.8273 74.8377 20.649Z" fill="#737373" fill-opacity="0.7"/>
<path d="M82.1599 24.8476C81.4427 23.5603 81.0816 22.1134 81.112 20.649C81.0816 19.1846 81.4427 17.7377 82.1599 16.4504C82.8419 15.2475 83.8746 14.2685 85.1276 13.637C86.5153 12.985 88.0362 12.6464 89.5769 12.6464C91.1176 12.6464 92.6384 12.985 94.0262 13.637C95.2791 14.2685 96.3118 15.2475 96.9938 16.4504C97.7111 17.7377 98.0722 19.1846 98.0417 20.649C98.0759 22.1192 97.7146 23.5726 96.9938 24.8648C96.3072 26.0599 95.2752 27.0322 94.0262 27.661C92.6384 28.313 91.1176 28.6516 89.5769 28.6516C88.0362 28.6516 86.5153 28.313 85.1276 27.661C83.8746 27.0295 82.8419 26.0505 82.1599 24.8476ZM93.5771 20.649C93.6316 19.4728 93.2485 18.317 92.4983 17.3939C92.1295 17.0007 91.6806 16.6867 91.1802 16.4718C90.6799 16.2569 90.1391 16.146 89.5923 16.146C89.0455 16.146 88.5047 16.2569 88.0043 16.4718C87.504 16.6867 87.0551 17.0007 86.6863 17.3939C85.9439 18.32 85.5688 19.4755 85.6295 20.649C85.5737 21.8246 85.9552 22.9804 86.7039 23.9041C87.0727 24.2973 87.5216 24.6114 88.0219 24.8262C88.5223 25.0411 89.0631 25.152 89.6099 25.152C90.1567 25.152 90.6975 25.0411 91.1979 24.8262C91.6982 24.6114 92.1471 24.2973 92.5159 23.9041C93.2599 22.9786 93.6366 21.823 93.5771 20.649Z" fill="#737373" fill-opacity="0.7"/>
<path d="M104.88 7.15677V19.491L111.189 12.8307H116.125L110.401 18.9464L116.451 28.4673H111.348L107.288 22.1415L104.88 24.6632V28.4673H100.477V7.15677H104.88Z" fill="#737373" fill-opacity="0.7"/>
<path d="M121.871 24.9377C122.582 25.3971 123.423 25.6281 124.275 25.5982C125.034 25.6363 125.791 25.4888 126.477 25.1693C126.729 25.058 126.943 24.8765 127.09 24.6476C127.237 24.4188 127.312 24.1527 127.304 23.8827C127.318 23.7127 127.291 23.5419 127.226 23.3836C127.161 23.2252 127.06 23.0834 126.93 22.9692C126.617 22.7454 126.253 22.5983 125.869 22.5403C125.429 22.4503 124.663 22.343 123.619 22.223C122.427 22.0835 121.249 21.8497 120.097 21.5239C119.237 21.283 118.46 20.8208 117.847 20.1858C117.258 19.5075 116.956 18.6369 117.001 17.7498C116.99 16.7832 117.299 15.8387 117.882 15.0565C118.497 14.2434 119.334 13.616 120.299 13.2467C121.441 12.8032 122.663 12.5859 123.892 12.6077C126.079 12.6277 127.84 13.0837 129.176 13.9758C129.817 14.3796 130.349 14.9279 130.727 15.5744C131.105 16.2208 131.317 16.9465 131.346 17.6898H127.164C127.13 17.3939 127.027 17.1094 126.862 16.8588C126.697 16.6081 126.475 16.3979 126.213 16.2445C125.553 15.8463 124.786 15.6506 124.011 15.6827C123.31 15.651 122.614 15.8083 121.999 16.1373C121.769 16.253 121.577 16.4276 121.442 16.6423C121.306 16.857 121.234 17.1035 121.233 17.3553C121.223 17.5142 121.255 17.6729 121.326 17.8163C121.396 17.9597 121.504 18.083 121.638 18.1744C121.959 18.3778 122.321 18.5136 122.699 18.5733C123.139 18.6505 123.866 18.7448 124.9 18.8435C127.067 19.0894 128.728 19.5411 129.885 20.1987C131.038 20.8591 131.615 21.9871 131.615 23.5911C131.63 24.5592 131.306 25.5033 130.695 26.2672C130.024 27.0781 129.138 27.6938 128.132 28.047C126.918 28.4846 125.631 28.697 124.337 28.6731C122.109 28.6731 120.298 28.1914 118.903 27.2279C118.241 26.7893 117.695 26.2028 117.312 25.5172C116.929 24.8316 116.72 24.0668 116.702 23.2866H120.854C120.884 23.6189 120.991 23.9402 121.167 24.2263C121.343 24.5123 121.584 24.7556 121.871 24.9377Z" fill="#737373" fill-opacity="0.7"/>
<path d="M141.764 28.6517C140.244 28.6852 138.74 28.3444 137.392 27.661C136.165 27.0217 135.16 26.0427 134.503 24.8476C133.81 23.5529 133.462 22.1091 133.491 20.649C133.458 19.1844 133.806 17.7354 134.503 16.4375C135.167 15.2448 136.178 14.2702 137.41 13.637C138.769 12.952 140.283 12.6113 141.813 12.6463C143.958 12.6463 145.706 13.1795 147.057 14.246C148.438 15.3578 149.332 16.9405 149.558 18.6719H144.983C144.831 17.9534 144.435 17.3054 143.86 16.8321C143.269 16.3644 142.525 16.1207 141.764 16.1459C141.238 16.1286 140.714 16.2326 140.237 16.4495C139.76 16.6663 139.341 16.9899 139.017 17.3939C138.295 18.3294 137.931 19.4803 137.986 20.649C137.931 21.8177 138.295 22.9686 139.017 23.9041C139.34 24.3113 139.757 24.6381 140.234 24.858C140.712 25.0779 141.236 25.1846 141.764 25.1693C142.541 25.1959 143.301 24.9475 143.904 24.4702C144.492 23.9768 144.885 23.2987 145.014 22.5532H149.544C149.339 24.3036 148.449 25.9098 147.061 27.0392C145.696 28.1142 143.93 28.6517 141.764 28.6517Z" fill="#737373" fill-opacity="0.7"/>
<path d="M152.116 24.8476C151.398 23.5603 151.037 22.1134 151.068 20.649C151.037 19.1846 151.398 17.7377 152.116 16.4504C152.798 15.2475 153.83 14.2685 155.083 13.637C156.471 12.985 157.992 12.6464 159.533 12.6464C161.073 12.6464 162.594 12.985 163.982 13.637C165.235 14.2685 166.268 15.2475 166.95 16.4504C167.667 17.7377 168.028 19.1846 167.998 20.649C168.032 22.1192 167.67 23.5726 166.95 24.8648C166.269 26.0568 165.245 27.0288 164.004 27.661C162.616 28.313 161.095 28.6516 159.555 28.6516C158.014 28.6516 156.493 28.313 155.105 27.661C153.844 27.0329 152.804 26.0536 152.116 24.8476ZM163.533 20.649C163.587 19.4728 163.204 18.317 162.454 17.3939C162.085 17.0007 161.636 16.6867 161.136 16.4718C160.636 16.2569 160.095 16.146 159.548 16.146C159.001 16.146 158.46 16.2569 157.96 16.4718C157.46 16.6867 157.011 17.0007 156.642 17.3939C155.893 18.3176 155.512 19.4734 155.568 20.649C155.512 21.8246 155.893 22.9804 156.642 23.9041C157.011 24.2973 157.46 24.6114 157.96 24.8262C158.46 25.0411 159.001 25.152 159.548 25.152C160.095 25.152 160.636 25.0411 161.136 24.8262C161.636 24.6114 162.085 24.2973 162.454 23.9041C163.206 22.9816 163.591 21.8257 163.537 20.649H163.533Z" fill="#737373" fill-opacity="0.7"/>
<path d="M185.553 28.4673H181.651L181.242 26.5803C180.678 27.2619 179.957 27.8046 179.138 28.1645C178.319 28.5243 177.424 28.6912 176.526 28.6517C175.683 28.6831 174.842 28.5497 174.052 28.2595C173.263 27.9693 172.541 27.5281 171.929 26.9619C170.755 25.8383 170.168 23.957 170.168 21.318V12.8307H174.571V20.7991C174.571 22.2229 174.827 23.2908 175.337 24.0113C175.603 24.3731 175.959 24.6624 176.373 24.8517C176.786 25.0409 177.242 25.1237 177.697 25.0921C178.193 25.1138 178.686 25.0154 179.132 24.8059C179.579 24.5963 179.965 24.282 180.256 23.8912C180.863 23.0893 181.163 21.9656 181.163 20.5289V12.8307H185.566L185.553 28.4673Z" fill="#737373" fill-opacity="0.7"/>
<path d="M187.116 16.4504V12.8307H189.757V8.44337H194.161V12.8307H197.815V16.4504H194.161V23.3123C194.121 23.7379 194.248 24.1624 194.517 24.5002C194.683 24.6364 194.875 24.7388 195.083 24.8014C195.29 24.864 195.508 24.8856 195.724 24.8648H198V28.4844H194.385C191.321 28.4844 189.79 26.9934 189.793 24.0113V16.4504H187.116Z" fill="#737373" fill-opacity="0.7"/>
<path d="M22.8631 3.85714L0 16.7143V9L16.0092 0L22.8631 3.85714Z" fill="#737373" fill-opacity="0.7"/>
<path d="M32.0185 9V13.4505L3.96 29.2253L0 27V22.8132L28.2785 6.90659L32.0185 9Z" fill="#737373" fill-opacity="0.7"/>
<path d="M9.37538 32.2747L32.0185 19.5494V27L16.0092 36L9.37538 32.2747Z" fill="#737373" fill-opacity="0.7"/>
</svg>
