<svg width="150" height="26" viewBox="0 0 150 26" fill="none" xmlns="http://www.w3.org/2000/svg">
<path d="M9.92219 12C11.0422 12 11.8955 11.7467 12.4822 11.24C13.0955 10.7067 13.4022 9.90667 13.4022 8.84C13.4022 7.82667 13.0822 7.05333 12.4422 6.52C11.8289 5.96 10.9222 5.68 9.72219 5.68C9.29552 5.68 8.93552 5.69333 8.64219 5.72C8.37552 5.72 8.09552 5.74667 7.80219 5.8V12H9.92219ZM7.84219 24.84C7.54885 24.92 7.08219 25 6.44219 25.08C5.82885 25.16 5.21552 25.2 4.60219 25.2C3.98885 25.2 3.44219 25.1467 2.96219 25.04C2.50885 24.96 2.12219 24.8 1.80219 24.56C1.48219 24.32 1.24219 23.9867 1.08219 23.56C0.922188 23.1333 0.842188 22.5733 0.842188 21.88V3.04C0.842188 2.48 0.988854 2.05333 1.28219 1.76C1.60219 1.44 2.02885 1.18666 2.56219 0.999999C3.46885 0.679998 4.49552 0.453331 5.64219 0.319998C6.81552 0.159999 7.98885 0.079999 9.16219 0.079999C12.8422 0.079999 15.6555 0.866666 17.6022 2.44C19.5489 4.01333 20.5222 6.14667 20.5222 8.84C20.5222 10.1467 20.3089 11.3333 19.8822 12.4C19.4822 13.44 18.8689 14.3467 18.0422 15.12C17.2422 15.8667 16.2155 16.4533 14.9622 16.88C13.7355 17.28 12.3089 17.48 10.6822 17.48H7.84219V24.84ZM28.8334 1.48C29.2868 1.21333 29.9668 0.959998 30.8734 0.719998C31.8068 0.479998 32.7401 0.359998 33.6734 0.359998C35.0068 0.359998 36.1801 0.559998 37.1934 0.96C38.2334 1.33333 38.9001 1.93333 39.1934 2.76C39.6734 4.14667 40.1934 5.76 40.7534 7.6C41.3134 9.44 41.8734 11.3467 42.4334 13.32C42.9934 15.2667 43.5401 17.2 44.0734 19.12C44.6068 21.0133 45.0734 22.6933 45.4734 24.16C45.1534 24.5333 44.6734 24.8267 44.0334 25.04C43.3934 25.28 42.6334 25.4 41.7534 25.4C41.1134 25.4 40.5668 25.3467 40.1134 25.24C39.6868 25.1333 39.3268 24.9733 39.0334 24.76C38.7668 24.5467 38.5401 24.2667 38.3534 23.92C38.1934 23.5733 38.0468 23.1733 37.9134 22.72L37.1934 19.96H29.9534C29.7401 20.76 29.5268 21.5867 29.3134 22.44C29.1001 23.2933 28.8868 24.12 28.6734 24.92C28.3001 25.0533 27.9001 25.16 27.4734 25.24C27.0734 25.3467 26.5801 25.4 25.9934 25.4C24.6334 25.4 23.6201 25.1733 22.9534 24.72C22.3134 24.24 21.9934 23.5867 21.9934 22.76C21.9934 22.3867 22.0468 22.0133 22.1534 21.64C22.2601 21.2667 22.3801 20.8267 22.5134 20.32C22.7001 19.6 22.9534 18.7067 23.2734 17.64C23.6201 16.5733 23.9934 15.4267 24.3934 14.2C24.7934 12.9467 25.2201 11.6667 25.6734 10.36C26.1268 9.05333 26.5534 7.82667 26.9534 6.68C27.3534 5.50667 27.7134 4.46667 28.0334 3.56C28.3801 2.65333 28.6468 1.96 28.8334 1.48ZM33.6334 6.64C33.2601 7.76 32.8334 9.01333 32.3534 10.4C31.9001 11.76 31.4868 13.1467 31.1134 14.56H36.0734C35.7001 13.12 35.3134 11.72 34.9134 10.36C34.5401 8.97333 34.1934 7.73333 33.8734 6.64H33.6334ZM66.3116 19.04C65.9649 19.3333 65.5116 19.5733 64.9516 19.76C64.4182 19.92 63.7916 20 63.0716 20C62.1116 20 61.3116 19.88 60.6716 19.64C60.0582 19.4 59.6582 18.9867 59.4716 18.4C58.7249 16.0533 58.1116 14.16 57.6316 12.72C57.1516 11.2533 56.7782 9.97333 56.5116 8.88H56.3116C56.2316 10.4533 56.1649 11.8933 56.1116 13.2C56.0849 14.48 56.0582 15.7333 56.0316 16.96C56.0316 18.1867 56.0049 19.4267 55.9516 20.68C55.9249 21.9333 55.8716 23.32 55.7916 24.84C55.4449 24.9733 54.9916 25.08 54.4316 25.16C53.8716 25.2667 53.3116 25.32 52.7516 25.32C51.5782 25.32 50.6582 25.1333 49.9916 24.76C49.3516 24.3867 49.0316 23.7067 49.0316 22.72L50.1916 2.32C50.4049 1.97333 50.8716 1.6 51.5916 1.2C52.3116 0.799999 53.3249 0.599999 54.6316 0.599999C56.0449 0.599999 57.1516 0.826666 57.9516 1.28C58.7516 1.70667 59.3382 2.41333 59.7116 3.4C59.9516 4.04 60.2049 4.77333 60.4716 5.6C60.7649 6.42667 61.0449 7.28 61.3116 8.16C61.6049 9.04 61.8849 9.92 62.1516 10.8C62.4182 11.6533 62.6582 12.4267 62.8716 13.12H63.0716C63.7116 10.88 64.3516 8.72 64.9916 6.64C65.6316 4.53333 66.2182 2.77333 66.7516 1.36C67.1516 1.14667 67.6582 0.973332 68.2716 0.839999C68.9116 0.679999 69.6182 0.599999 70.3916 0.599999C71.6982 0.599999 72.7649 0.799999 73.5916 1.2C74.4182 1.57333 74.8982 2.12 75.0316 2.84C75.1382 3.37333 75.2449 4.2 75.3516 5.32C75.4849 6.41333 75.6182 7.65333 75.7516 9.04C75.8849 10.4267 76.0182 11.8933 76.1516 13.44C76.2849 14.9867 76.4049 16.48 76.5116 17.92C76.6449 19.3333 76.7516 20.64 76.8316 21.84C76.9116 23.0133 76.9649 23.92 76.9916 24.56C76.5382 24.8267 76.0582 25.0133 75.5516 25.12C75.0716 25.2533 74.4449 25.32 73.6716 25.32C72.6582 25.32 71.8049 25.1467 71.1116 24.8C70.4182 24.4533 70.0449 23.7733 69.9916 22.76C69.8316 19.8533 69.7249 17.24 69.6716 14.92C69.6449 12.6 69.5916 10.6533 69.5116 9.08H69.3116C69.0449 10.12 68.6582 11.4267 68.1516 13C67.6449 14.5733 67.0316 16.5867 66.3116 19.04ZM91.3066 12C92.4266 12 93.2799 11.7467 93.8666 11.24C94.4799 10.7067 94.7866 9.90667 94.7866 8.84C94.7866 7.82667 94.4666 7.05333 93.8266 6.52C93.2132 5.96 92.3066 5.68 91.1066 5.68C90.6799 5.68 90.3199 5.69333 90.0266 5.72C89.7599 5.72 89.4799 5.74667 89.1866 5.8V12H91.3066ZM89.2266 24.84C88.9332 24.92 88.4666 25 87.8266 25.08C87.2132 25.16 86.5999 25.2 85.9866 25.2C85.3732 25.2 84.8266 25.1467 84.3466 25.04C83.8932 24.96 83.5066 24.8 83.1866 24.56C82.8666 24.32 82.6266 23.9867 82.4666 23.56C82.3066 23.1333 82.2266 22.5733 82.2266 21.88V3.04C82.2266 2.48 82.3732 2.05333 82.6666 1.76C82.9866 1.44 83.4132 1.18666 83.9466 0.999999C84.8532 0.679998 85.8799 0.453331 87.0266 0.319998C88.1999 0.159999 89.3732 0.079999 90.5466 0.079999C94.2266 0.079999 97.0399 0.866666 98.9866 2.44C100.933 4.01333 101.907 6.14667 101.907 8.84C101.907 10.1467 101.693 11.3333 101.267 12.4C100.867 13.44 100.253 14.3467 99.4266 15.12C98.6266 15.8667 97.5999 16.4533 96.3466 16.88C95.1199 17.28 93.6932 17.48 92.0666 17.48H89.2266V24.84ZM106.269 4.48C106.269 3.33333 106.602 2.42666 107.269 1.76C107.935 1.09333 108.842 0.76 109.989 0.76H123.189C123.375 1.05333 123.535 1.44 123.669 1.92C123.829 2.4 123.909 2.90667 123.909 3.44C123.909 4.45333 123.682 5.17333 123.229 5.6C122.802 6.02667 122.229 6.24 121.509 6.24H113.069V9.96H122.069C122.255 10.2533 122.415 10.64 122.549 11.12C122.709 11.5733 122.789 12.0667 122.789 12.6C122.789 13.6133 122.575 14.3333 122.149 14.76C121.722 15.1867 121.149 15.4 120.429 15.4H113.069V19.6H123.349C123.535 19.8933 123.695 20.28 123.829 20.76C123.989 21.24 124.069 21.7467 124.069 22.28C124.069 23.2933 123.842 24.0267 123.389 24.48C122.962 24.9067 122.389 25.12 121.669 25.12H109.989C108.842 25.12 107.935 24.7867 107.269 24.12C106.602 23.4533 106.269 22.5467 106.269 21.4V4.48ZM135.943 17.16V24.84C135.649 24.92 135.183 25 134.543 25.08C133.929 25.16 133.316 25.2 132.703 25.2C132.089 25.2 131.543 25.1467 131.063 25.04C130.609 24.96 130.223 24.8 129.903 24.56C129.609 24.32 129.383 23.9867 129.223 23.56C129.063 23.1333 128.983 22.5733 128.983 21.88V3.04C128.983 2.48 129.129 2.05333 129.423 1.76C129.743 1.44 130.169 1.18666 130.703 0.999999C131.609 0.679998 132.663 0.453331 133.863 0.319998C135.063 0.159999 136.343 0.079999 137.703 0.079999C141.383 0.079999 144.156 0.853333 146.023 2.4C147.889 3.94667 148.823 6.04 148.823 8.68C148.823 10.3333 148.396 11.7467 147.543 12.92C146.689 14.0933 145.676 15 144.503 15.64C145.463 16.9467 146.409 18.1733 147.343 19.32C148.276 20.4667 149.009 21.5067 149.543 22.44C149.276 23.3733 148.783 24.0933 148.063 24.6C147.369 25.08 146.583 25.32 145.703 25.32C145.116 25.32 144.609 25.2533 144.183 25.12C143.756 24.9867 143.383 24.8 143.063 24.56C142.743 24.32 142.449 24.0267 142.183 23.68C141.916 23.3333 141.663 22.96 141.423 22.56L138.063 17.16H135.943ZM138.463 11.84C139.476 11.84 140.276 11.5867 140.863 11.08C141.449 10.5467 141.743 9.77333 141.743 8.76C141.743 7.74667 141.409 6.98667 140.743 6.48C140.103 5.94667 139.076 5.68 137.663 5.68C137.263 5.68 136.943 5.69333 136.703 5.72C136.463 5.74667 136.196 5.78667 135.903 5.84V11.84H138.463Z" fill="#737373" fill-opacity="0.7"/>
</svg>
