<svg width="17" height="20" viewBox="0 0 17 20" fill="none" xmlns="http://www.w3.org/2000/svg">
<g clip-path="url(#clip0_770_6461)">
<path d="M13.9548 10.622C13.9307 8.1518 15.9766 6.94912 16.0711 6.89353C14.9129 5.20347 13.1172 4.97368 12.4853 4.95515C10.9787 4.79764 9.51657 5.85948 8.74937 5.85948C7.9655 5.85948 6.78135 4.97182 5.50824 4.99777C3.86637 5.02372 2.33197 5.97437 1.49065 7.44762C-0.243881 10.4553 1.0496 14.8731 2.71372 17.3044C3.54763 18.4941 4.51867 19.8247 5.79177 19.7765C7.03708 19.7246 7.50222 18.9834 9.00511 18.9834C10.495 18.9834 10.9323 19.7765 12.2314 19.7469C13.5675 19.7246 14.4089 18.5516 15.2113 17.349C16.1749 15.985 16.5603 14.6415 16.5752 14.573C16.5436 14.5618 13.9808 13.5834 13.9548 10.622Z" fill="black"/>
<path d="M11.5012 3.35767C12.1702 2.52005 12.6316 1.37852 12.5018 0.222168C11.5327 0.266643 10.3208 0.893003 9.62208 1.71209C9.005 2.43481 8.45091 3.61896 8.59545 4.73084C9.68511 4.81238 10.8025 4.18232 11.5012 3.35767Z" fill="black"/>
</g>
<defs>
<clipPath id="clip0_770_6461">
<rect width="16" height="19.5556" fill="white" transform="translate(0.666992 0.222168)"/>
</clipPath>
</defs>
</svg>
