<svg width="116" height="20" viewBox="0 0 116 20" fill="none" xmlns="http://www.w3.org/2000/svg">
<g clip-path="url(#clip0_699_21926)">
<path d="M9.53841 1.60998C9.70921 1.19934 10.291 1.19934 10.4618 1.60998L12.5279 6.57746C12.5999 6.75058 12.7627 6.86887 12.9496 6.88385L18.3124 7.31378C18.7557 7.34932 18.9355 7.90258 18.5977 8.19191L14.5118 11.6919C14.3694 11.8139 14.3072 12.0053 14.3507 12.1876L15.599 17.4208C15.7022 17.8534 15.2316 18.1954 14.852 17.9635L10.2607 15.1592C10.1007 15.0615 9.89945 15.0615 9.73944 15.1592L5.14813 17.9635C4.76858 18.1954 4.29795 17.8534 4.40115 17.4208L5.64946 12.1876C5.69296 12.0053 5.63077 11.8139 5.48838 11.6919L1.40248 8.19191C1.06471 7.90258 1.24448 7.34932 1.6878 7.31378L7.05061 6.88385C7.23751 6.86887 7.40031 6.75058 7.47232 6.57746L9.53841 1.60998Z" fill="#F2F4F7"/>
<path d="M9.53841 1.60998C9.70921 1.19934 10.291 1.19934 10.4618 1.60998L12.5279 6.57746C12.5999 6.75058 12.7627 6.86887 12.9496 6.88385L18.3124 7.31378C18.7557 7.34932 18.9355 7.90258 18.5977 8.19191L14.5118 11.6919C14.3694 11.8139 14.3072 12.0053 14.3507 12.1876L15.599 17.4208C15.7022 17.8534 15.2316 18.1954 14.852 17.9635L10.2607 15.1592C10.1007 15.0615 9.89945 15.0615 9.73944 15.1592L5.14813 17.9635C4.76858 18.1954 4.29795 17.8534 4.40115 17.4208L5.64946 12.1876C5.69296 12.0053 5.63077 11.8139 5.48838 11.6919L1.40248 8.19191C1.06471 7.90258 1.24448 7.34932 1.6878 7.31378L7.05061 6.88385C7.23751 6.86887 7.40031 6.75058 7.47232 6.57746L9.53841 1.60998Z" fill="#FEC84B"/>
<path d="M33.5384 1.60998C33.7092 1.19934 34.291 1.19934 34.4618 1.60998L36.5279 6.57746C36.5999 6.75058 36.7627 6.86887 36.9496 6.88385L42.3124 7.31378C42.7557 7.34932 42.9355 7.90258 42.5977 8.19191L38.5118 11.6919C38.3694 11.8139 38.3072 12.0053 38.3507 12.1876L39.599 17.4208C39.7022 17.8534 39.2316 18.1954 38.852 17.9635L34.2607 15.1592C34.1007 15.0615 33.8995 15.0615 33.7395 15.1592L29.1482 17.9635C28.7686 18.1954 28.298 17.8534 28.4012 17.4208L29.6495 12.1876C29.693 12.0053 29.6308 11.8139 29.4884 11.6919L25.4025 8.19191C25.0647 7.90258 25.2445 7.34932 25.6878 7.31378L31.0506 6.88385C31.2375 6.86887 31.4003 6.75058 31.4723 6.57746L33.5384 1.60998Z" fill="#F2F4F7"/>
<path d="M33.5384 1.60998C33.7092 1.19934 34.291 1.19934 34.4618 1.60998L36.5279 6.57746C36.5999 6.75058 36.7627 6.86887 36.9496 6.88385L42.3124 7.31378C42.7557 7.34932 42.9355 7.90258 42.5977 8.19191L38.5118 11.6919C38.3694 11.8139 38.3072 12.0053 38.3507 12.1876L39.599 17.4208C39.7022 17.8534 39.2316 18.1954 38.852 17.9635L34.2607 15.1592C34.1007 15.0615 33.8995 15.0615 33.7395 15.1592L29.1482 17.9635C28.7686 18.1954 28.298 17.8534 28.4012 17.4208L29.6495 12.1876C29.693 12.0053 29.6308 11.8139 29.4884 11.6919L25.4025 8.19191C25.0647 7.90258 25.2445 7.34932 25.6878 7.31378L31.0506 6.88385C31.2375 6.86887 31.4003 6.75058 31.4723 6.57746L33.5384 1.60998Z" fill="#FEC84B"/>
<path d="M57.5384 1.60998C57.7092 1.19934 58.291 1.19934 58.4618 1.60998L60.5279 6.57746C60.5999 6.75058 60.7627 6.86887 60.9496 6.88385L66.3124 7.31378C66.7557 7.34932 66.9355 7.90258 66.5977 8.19191L62.5118 11.6919C62.3694 11.8139 62.3072 12.0053 62.3507 12.1876L63.599 17.4208C63.7022 17.8534 63.2316 18.1954 62.852 17.9635L58.2607 15.1592C58.1007 15.0615 57.8995 15.0615 57.7395 15.1592L53.1482 17.9635C52.7686 18.1954 52.298 17.8534 52.4012 17.4208L53.6495 12.1876C53.693 12.0053 53.6308 11.8139 53.4884 11.6919L49.4025 8.19191C49.0647 7.90258 49.2445 7.34932 49.6878 7.31378L55.0506 6.88385C55.2375 6.86887 55.4003 6.75058 55.4723 6.57746L57.5384 1.60998Z" fill="#F2F4F7"/>
<path d="M57.5384 1.60998C57.7092 1.19934 58.291 1.19934 58.4618 1.60998L60.5279 6.57746C60.5999 6.75058 60.7627 6.86887 60.9496 6.88385L66.3124 7.31378C66.7557 7.34932 66.9355 7.90258 66.5977 8.19191L62.5118 11.6919C62.3694 11.8139 62.3072 12.0053 62.3507 12.1876L63.599 17.4208C63.7022 17.8534 63.2316 18.1954 62.852 17.9635L58.2607 15.1592C58.1007 15.0615 57.8995 15.0615 57.7395 15.1592L53.1482 17.9635C52.7686 18.1954 52.298 17.8534 52.4012 17.4208L53.6495 12.1876C53.693 12.0053 53.6308 11.8139 53.4884 11.6919L49.4025 8.19191C49.0647 7.90258 49.2445 7.34932 49.6878 7.31378L55.0506 6.88385C55.2375 6.86887 55.4003 6.75058 55.4723 6.57746L57.5384 1.60998Z" fill="#FEC84B"/>
<path d="M81.5384 1.60998C81.7092 1.19934 82.291 1.19934 82.4618 1.60998L84.5279 6.57746C84.5999 6.75058 84.7627 6.86887 84.9496 6.88385L90.3124 7.31378C90.7557 7.34932 90.9355 7.90258 90.5977 8.19191L86.5118 11.6919C86.3694 11.8139 86.3072 12.0053 86.3507 12.1876L87.599 17.4208C87.7022 17.8534 87.2316 18.1954 86.852 17.9635L82.2607 15.1592C82.1007 15.0615 81.8995 15.0615 81.7395 15.1592L77.1482 17.9635C76.7686 18.1954 76.298 17.8534 76.4012 17.4208L77.6495 12.1876C77.693 12.0053 77.6308 11.8139 77.4884 11.6919L73.4025 8.19191C73.0647 7.90258 73.2445 7.34932 73.6878 7.31378L79.0506 6.88385C79.2375 6.86887 79.4003 6.75058 79.4723 6.57746L81.5384 1.60998Z" fill="#F2F4F7"/>
<path d="M81.5384 1.60998C81.7092 1.19934 82.291 1.19934 82.4618 1.60998L84.5279 6.57746C84.5999 6.75058 84.7627 6.86887 84.9496 6.88385L90.3124 7.31378C90.7557 7.34932 90.9355 7.90258 90.5977 8.19191L86.5118 11.6919C86.3694 11.8139 86.3072 12.0053 86.3507 12.1876L87.599 17.4208C87.7022 17.8534 87.2316 18.1954 86.852 17.9635L82.2607 15.1592C82.1007 15.0615 81.8995 15.0615 81.7395 15.1592L77.1482 17.9635C76.7686 18.1954 76.298 17.8534 76.4012 17.4208L77.6495 12.1876C77.693 12.0053 77.6308 11.8139 77.4884 11.6919L73.4025 8.19191C73.0647 7.90258 73.2445 7.34932 73.6878 7.31378L79.0506 6.88385C79.2375 6.86887 79.4003 6.75058 79.4723 6.57746L81.5384 1.60998Z" fill="#FEC84B"/>
<path d="M105.538 1.60998C105.709 1.19934 106.291 1.19934 106.462 1.60998L108.528 6.57746C108.6 6.75058 108.763 6.86887 108.949 6.88385L114.312 7.31378C114.756 7.34932 114.935 7.90258 114.598 8.19191L110.512 11.6919C110.369 11.8139 110.307 12.0053 110.351 12.1876L111.599 17.4208C111.702 17.8534 111.231 18.1954 110.852 17.9635L106.261 15.1592C106.101 15.0615 105.899 15.0615 105.739 15.1592L101.148 17.9635C100.769 18.1954 100.298 17.8534 100.401 17.4208L101.649 12.1876C101.693 12.0053 101.631 11.8139 101.488 11.6919L97.4025 8.19191C97.0647 7.90258 97.2445 7.34932 97.6878 7.31378L103.051 6.88385C103.237 6.86887 103.4 6.75058 103.472 6.57746L105.538 1.60998Z" fill="#F2F4F7"/>
<path d="M105.538 1.60998C105.709 1.19934 106.291 1.19934 106.462 1.60998L108.528 6.57746C108.6 6.75058 108.763 6.86887 108.949 6.88385L114.312 7.31378C114.756 7.34932 114.935 7.90258 114.598 8.19191L110.512 11.6919C110.369 11.8139 110.307 12.0053 110.351 12.1876L111.599 17.4208C111.702 17.8534 111.231 18.1954 110.852 17.9635L106.261 15.1592C106.101 15.0615 105.899 15.0615 105.739 15.1592L101.148 17.9635C100.769 18.1954 100.298 17.8534 100.401 17.4208L101.649 12.1876C101.693 12.0053 101.631 11.8139 101.488 11.6919L97.4025 8.19191C97.0647 7.90258 97.2445 7.34932 97.6878 7.31378L103.051 6.88385C103.237 6.86887 103.4 6.75058 103.472 6.57746L105.538 1.60998Z" fill="#FEC84B"/>
</g>
<defs>
<clipPath id="clip0_699_21926">
<rect width="116" height="20" fill="white"/>
</clipPath>
</defs>
</svg>
